<svg width="130" height="32" viewBox="0 0 130 32" fill="none" xmlns="http://www.w3.org/2000/svg">
<path d="M1.15342 3.75908L1.46544 3.99309C1.56354 4.06667 1.68286 4.10644 1.80549 4.10644H2.18333L6.71315 9.258C6.87551 9.44264 7.15259 9.47129 7.34929 9.32377C7.56886 9.15908 7.60162 8.84225 7.42037 8.63613L2.93901 3.53968L6.0562 2.02832L9.83364 6.15716C9.99497 6.33349 10.2638 6.3586 10.455 6.21521C10.6777 6.04817 10.7044 5.72407 10.5121 5.5228L6.81188 1.65048L6.92192 1.57712C7.03382 1.50252 7.11554 1.39056 7.15249 1.26125L7.20381 1.08164C7.25423 0.905171 7.21607 0.715207 7.10142 0.571891L6.99968 0.444719C6.9385 0.36824 6.85854 0.308922 6.7676 0.272547L6.66014 0.229563C6.51579 0.17182 6.35405 0.175916 6.2128 0.24089L1.71103 2.3117L1.2675 2.56515C1.12885 2.64438 1.03006 2.77841 0.995424 2.93429L0.940216 3.18273C0.891923 3.40005 0.975328 3.62551 1.15342 3.75908Z" fill="#2D62FF"/>
<path fill-rule="evenodd" clip-rule="evenodd" d="M1.62455 2.14344L6.13387 0.0691521C6.3222 -0.0174802 6.53785 -0.0229408 6.73033 0.0540488L6.83779 0.0970337C6.95904 0.145533 7.06565 0.224624 7.14723 0.326596L7.24896 0.453768C7.40183 0.644856 7.45271 0.898142 7.38548 1.13344L7.33417 1.31304L7.15251 1.26114L7.20383 1.08154C7.25425 0.905066 7.21609 0.715102 7.10144 0.571785L6.9997 0.444613C6.93852 0.368134 6.85856 0.308816 6.76763 0.272442L6.66017 0.229457C6.51581 0.171715 6.35407 0.17581 6.21282 0.240784L1.71106 2.3116L1.26752 2.56505C1.12888 2.64427 1.03009 2.77831 0.995448 2.93419L0.94024 3.18262C0.891947 3.39994 0.975352 3.62541 1.15345 3.75898L1.46546 3.99299C1.56356 4.06657 1.68289 4.10634 1.80552 4.10634H2.18336L6.71317 9.25789C6.87553 9.44253 7.15261 9.47118 7.34931 9.32366C7.56889 9.15897 7.60164 8.84215 7.4204 8.63603L2.93904 3.53958L6.05622 2.02822L9.83366 6.15705C9.99499 6.33338 10.2638 6.3585 10.455 6.2151C10.6777 6.04806 10.7044 5.72397 10.5121 5.52269L6.8119 1.65038L6.92194 1.57702C6.93842 1.56603 6.95424 1.55424 6.96936 1.5417C7.05694 1.46907 7.12101 1.37142 7.15251 1.26114L7.33417 1.31304C7.29338 1.45578 7.21169 1.58265 7.10012 1.67854L10.6487 5.39217C10.9193 5.67532 10.8817 6.13126 10.5683 6.36624C10.2994 6.56796 9.92123 6.53263 9.69428 6.28458L6.01191 2.25966L3.24485 3.60126L7.56227 8.51128C7.81623 8.8001 7.77034 9.24404 7.46266 9.4748C7.18705 9.6815 6.79879 9.64137 6.5713 9.38265L2.09791 4.29526H1.80552C1.64201 4.29526 1.48291 4.24223 1.35211 4.14412L1.0401 3.91011C0.802634 3.73202 0.691428 3.4314 0.755818 3.14164L0.811026 2.8932C0.857213 2.68536 0.988933 2.50665 1.17379 2.40102L1.62455 2.14344Z" fill="#2248B9"/>
<path d="M6.21944 0.479059L1.57613 2.6693C1.45786 2.72509 1.43067 2.88128 1.52314 2.97375L1.80556 3.25616L6.9064 0.989119L6.43362 0.516337C6.37724 0.459961 6.29155 0.445045 6.21944 0.479059Z" fill="url(#paint0_linear_1_1304)"/>
<path fill-rule="evenodd" clip-rule="evenodd" d="M21.7366 30.9329C23.0408 30.9329 24.0981 29.8756 24.0981 28.5714C24.0981 27.2672 23.0408 26.2099 21.7366 26.2099C20.4323 26.2099 19.3751 27.2672 19.3751 28.5714C19.3751 29.8756 20.4323 30.9329 21.7366 30.9329ZM21.7366 29.2326C22.1017 29.2326 22.3978 28.9366 22.3978 28.5714C22.3978 28.2062 22.1017 27.9102 21.7366 27.9102C21.3714 27.9102 21.0753 28.2062 21.0753 28.5714C21.0753 28.9366 21.3714 29.2326 21.7366 29.2326Z" fill="#2D62FF"/>
<path fill-rule="evenodd" clip-rule="evenodd" d="M24.287 28.5715C24.287 29.9801 23.1451 31.122 21.7366 31.122C20.328 31.122 19.1862 29.9801 19.1862 28.5715C19.1862 27.163 20.328 26.0211 21.7366 26.0211C23.1451 26.0211 24.287 27.163 24.287 28.5715ZM21.7366 29.0438C21.9974 29.0438 22.2089 28.8324 22.2089 28.5715C22.2089 28.3107 21.9974 28.0992 21.7366 28.0992C21.4757 28.0992 21.2643 28.3107 21.2643 28.5715C21.2643 28.8324 21.4757 29.0438 21.7366 29.0438ZM24.0981 28.5715C24.0981 29.8758 23.0408 30.933 21.7366 30.933C20.4324 30.933 19.3751 29.8758 19.3751 28.5715C19.3751 27.2673 20.4324 26.21 21.7366 26.21C23.0408 26.21 24.0981 27.2673 24.0981 28.5715ZM22.3978 28.5715C22.3978 28.9367 22.1018 29.2328 21.7366 29.2328C21.3714 29.2328 21.0754 28.9367 21.0754 28.5715C21.0754 28.2064 21.3714 27.9103 21.7366 27.9103C22.1018 27.9103 22.3978 28.2064 22.3978 28.5715Z" fill="#2248B9"/>
<path fill-rule="evenodd" clip-rule="evenodd" d="M10.0475 5.63144L6.17197 10.0707C5.56116 10.7703 5.5495 11.8102 6.14447 12.5234L9.78333 16.8852C9.80035 16.8763 9.81744 16.8674 9.83461 16.8584L12.6684 15.0637L9.48392 11.7116C9.2627 11.4787 9.279 11.1088 9.51984 10.8963L10.384 10.1337C10.5642 9.97473 10.8251 9.94668 11.035 10.0637L15.2568 12.4182C15.4616 12.5324 15.7155 12.5087 15.8957 12.3586L19.9311 8.9957C20.0579 8.89007 20.2242 8.84425 20.3837 8.88673C20.7457 8.98319 21.4045 9.21461 21.7366 9.67946C22.0643 10.1383 22.1646 10.7336 22.1953 11.055C22.2094 11.2024 22.1509 11.3446 22.0474 11.4505L18.3035 15.2794C18.1503 15.4361 18.1012 15.667 18.1773 15.8725L19.8018 20.2588C19.8856 20.4851 19.8169 20.7397 19.6306 20.8931L18.7956 21.5808C18.5455 21.7868 18.174 21.7416 17.9806 21.4817L15.3133 17.8975C14.807 18.5145 13.8126 19.4178 12.4786 20.1159L12.4845 20.123C12.2979 20.2294 12.0663 20.3391 11.8018 20.4379C10.9837 20.7892 10.0639 21.0484 9.06964 21.1258C10.3102 21.7791 11.951 22.1795 13.613 21.487L13.5448 21.3939L18.3391 27.1408C18.9354 27.8556 19.9652 28.0285 20.7634 27.5495C21.3617 27.1906 22.1103 27.1899 22.7086 27.5489L22.7365 27.5656C23.2904 27.8979 23.9756 27.9243 24.5534 27.6354L26.9941 26.415C27.3816 26.2213 27.6908 25.9002 27.8697 25.5057L31.313 17.9148C31.5842 17.3171 31.5256 16.6214 31.1584 16.0774L26.7374 9.5278C26.6782 9.44014 26.6118 9.35761 26.5388 9.28107L19.844 2.25965C19.2821 1.67033 18.4058 1.50735 17.6696 1.85523L10.6635 5.16578C10.4283 5.27693 10.2186 5.43546 10.0475 5.63144Z" fill="url(#paint1_linear_1_1304)"/>
<path fill-rule="evenodd" clip-rule="evenodd" d="M26.7374 9.5278C26.6782 9.44014 26.6118 9.35761 26.5388 9.28107L19.844 2.25965C19.2821 1.67033 18.4058 1.50735 17.6696 1.85523L10.6635 5.16578C10.4283 5.27693 10.2186 5.43546 10.0475 5.63144L6.17197 10.0707C5.56116 10.7703 5.5495 11.8102 6.14447 12.5234L9.78333 16.8852C9.80035 16.8763 9.81744 16.8674 9.83461 16.8584L12.6684 15.0637L9.48392 11.7116C9.2627 11.4787 9.279 11.1088 9.51984 10.8963L10.384 10.1337C10.5642 9.97473 10.8251 9.94668 11.035 10.0637L15.2568 12.4182C15.4616 12.5324 15.7155 12.5087 15.8957 12.3586L19.9311 8.9957C20.0579 8.89007 20.2242 8.84425 20.3837 8.88673C20.7457 8.98319 21.4045 9.21461 21.7366 9.67946C22.0643 10.1383 22.1646 10.7336 22.1953 11.055C22.2094 11.2024 22.1509 11.3446 22.0474 11.4505L18.3035 15.2794C18.1503 15.4361 18.1012 15.667 18.1773 15.8725L19.8018 20.2588C19.8856 20.4851 19.8169 20.7397 19.6306 20.8931L18.7956 21.5808C18.5455 21.7868 18.174 21.7416 17.9806 21.4817L15.3133 17.8975C15.2743 17.945 15.2324 17.9943 15.1876 18.045C14.6766 18.6243 13.7966 19.3958 12.6486 20.0248C12.6053 20.0486 12.5616 20.0721 12.5175 20.0954C12.505 20.102 12.4925 20.1086 12.48 20.1151C12.4795 20.1154 12.4791 20.1156 12.4786 20.1159L12.4845 20.123C12.4839 20.1233 12.4833 20.1236 12.4828 20.1239C12.4689 20.1318 12.4549 20.1397 12.4406 20.1476C12.4004 20.1698 12.3584 20.192 12.3146 20.2143C12.1635 20.291 11.9911 20.3672 11.8018 20.4379C11.0812 20.7473 10.2816 20.9854 9.42167 21.0905C9.30541 21.1048 9.18805 21.1165 9.06964 21.1258C9.17382 21.1806 9.28083 21.2337 9.39044 21.2845C10.5384 21.8165 11.9712 22.0983 13.4312 21.5585C13.4324 21.558 13.4336 21.5576 13.4349 21.5571C13.4942 21.5351 13.5536 21.5117 13.613 21.487L13.5448 21.3939L18.3391 27.1408C18.9354 27.8556 19.9652 28.0285 20.7634 27.5495C21.3617 27.1906 22.1103 27.1899 22.7086 27.5489L22.7365 27.5656C23.2904 27.8979 23.9756 27.9243 24.5534 27.6354L26.9941 26.415C27.3816 26.2213 27.6908 25.9002 27.8697 25.5057L31.313 17.9148C31.5842 17.3171 31.5256 16.6214 31.1584 16.0774L26.7374 9.5278ZM13.5646 21.3708L13.6898 21.2729L18.4842 27.0198C19.0207 27.6629 19.9476 27.8187 20.6662 27.3876C21.3242 26.9928 22.1475 26.9919 22.8058 27.3869L22.8337 27.4036C23.3322 27.7027 23.9489 27.7264 24.4689 27.4664L26.9097 26.246C27.2584 26.0717 27.5366 25.7827 27.6977 25.4276L31.141 17.8368C31.385 17.2988 31.3323 16.6727 31.0018 16.1831L26.5808 9.6335C26.5276 9.55461 26.4678 9.48032 26.4021 9.41144L19.7073 2.39002C19.2015 1.85963 18.4129 1.71295 17.7503 2.02604L10.7443 5.33659C10.5326 5.43662 10.3438 5.5793 10.1898 5.75568L6.31428 10.1949C5.76456 10.8246 5.75406 11.7605 6.28953 12.4023L9.82538 16.6407L12.3731 15.0271L9.34695 11.8417C9.05199 11.5312 9.07373 11.0379 9.39484 10.7546L10.259 9.99209C10.4993 9.78007 10.8472 9.74266 11.1271 9.89874L15.3488 12.2532C15.4853 12.3293 15.6546 12.3135 15.7747 12.2134L19.8102 8.85057C19.9778 8.71088 20.2062 8.64393 20.4323 8.70418C20.621 8.75444 20.8898 8.84053 21.1571 8.97659C21.4227 9.1118 21.6998 9.30295 21.8903 9.56966C22.2478 10.0702 22.3519 10.7068 22.3834 11.037C22.4035 11.2471 22.3194 11.4425 22.1824 11.5826L18.4386 15.4115C18.3365 15.5159 18.3037 15.6699 18.3544 15.8069L19.979 20.1932C20.0907 20.4949 19.9991 20.8344 19.7507 21.039L18.9157 21.7267C18.5822 22.0012 18.0869 21.941 17.829 21.5945L15.3028 18.1998C14.7789 18.7862 13.9039 19.547 12.7719 20.1726L12.7741 20.1752L12.5781 20.287C12.383 20.3983 12.1437 20.5117 11.8722 20.6133C11.2241 20.8912 10.5122 21.113 9.74948 21.235C10.8617 21.6894 12.1967 21.8725 13.5403 21.3126L13.5646 21.3708Z" fill="#2248B9"/>
<path fill-rule="evenodd" clip-rule="evenodd" d="M21.7366 30.9329C23.0408 30.9329 24.0981 29.8756 24.0981 28.5714C24.0981 27.2672 23.0408 26.2099 21.7366 26.2099C20.4323 26.2099 19.3751 27.2672 19.3751 28.5714C19.3751 29.8756 20.4323 30.9329 21.7366 30.9329ZM21.7366 29.2326C22.1017 29.2326 22.3978 28.9366 22.3978 28.5714C22.3978 28.2062 22.1017 27.9102 21.7366 27.9102C21.3714 27.9102 21.0753 28.2062 21.0753 28.5714C21.0753 28.9366 21.3714 29.2326 21.7366 29.2326Z" fill="#2D62FF"/>
<path fill-rule="evenodd" clip-rule="evenodd" d="M7.09529 13.7413C6.02474 15.8194 5.07384 19.3522 9.83463 16.8585L12.6684 15.0637L9.48394 11.7116C9.26272 11.4788 9.27902 11.1088 9.51986 10.8963L10.2458 10.2558L9.90154 10.0638C9.69164 9.94673 9.43072 9.97478 9.25051 10.1338L8.38634 10.8963C8.1455 11.1088 8.1292 11.4788 8.35042 11.7116L11.5349 15.0637L9.45679 16.3862L9.45588 16.3851L9.45584 16.3851C8.32327 15.0637 8.32293 15.0633 7.09529 13.6468C7.02455 13.8001 6.95152 13.96 6.87767 14.1252C6.95082 13.9912 7.02366 13.8629 7.09529 13.7413ZM14.9176 12.2291L15.2568 12.4182C15.4616 12.5324 15.7155 12.5087 15.8957 12.3586L19.82 9.08833C19.6085 8.99219 19.4029 8.92748 19.2502 8.88678C19.0907 8.8443 18.9244 8.89012 18.7976 8.99575L14.9176 12.2291ZM17.9053 21.3805L15.3133 17.8975C15.1503 18.0962 14.9367 18.3246 14.6774 18.5662L16.8471 21.4817C17.0405 21.7416 17.412 21.7868 17.6621 21.5809L17.9053 21.3805Z" fill="#2248B9"/>
<path d="M41.0493 21.561V9.27024H41.8335L47.0488 14.7409L52.2095 9.27024H52.9936V21.561H50.6595V13.8474L47.3953 17.4033H46.7206L43.4017 13.8474V21.561H41.0493ZM59.5547 21.8345C58.8739 21.8345 58.2357 21.7129 57.64 21.4698C57.0565 21.2145 56.5398 20.868 56.09 20.4304C55.6402 19.9927 55.2876 19.4821 55.0323 18.8986C54.777 18.3029 54.6494 17.6707 54.6494 17.0021C54.6494 16.3213 54.777 15.6891 55.0323 15.1056C55.2876 14.5221 55.6402 14.0115 56.09 13.5738C56.5398 13.124 57.0565 12.7775 57.64 12.5344C58.2357 12.2791 58.8739 12.1515 59.5547 12.1515C60.2234 12.1515 60.8495 12.2791 61.433 12.5344C62.0287 12.7775 62.5514 13.124 63.0012 13.5738C63.4632 14.0115 63.8158 14.5221 64.0589 15.1056C64.3142 15.6891 64.4419 16.3213 64.4419 17.0021C64.4419 17.6707 64.3142 18.3029 64.0589 18.8986C63.8158 19.4821 63.4632 19.9927 63.0012 20.4304C62.5514 20.868 62.0287 21.2145 61.433 21.4698C60.8495 21.7129 60.2234 21.8345 59.5547 21.8345ZM59.5547 19.7557C60.041 19.7557 60.4787 19.6462 60.8677 19.4274C61.2689 19.1964 61.585 18.8743 61.8159 18.4609C62.0469 18.0476 62.1624 17.5613 62.1624 17.0021C62.1624 16.4307 62.0469 15.9384 61.8159 15.525C61.585 15.1117 61.2689 14.7956 60.8677 14.5768C60.4787 14.3458 60.041 14.2303 59.5547 14.2303C59.0806 14.2303 58.643 14.3458 58.2418 14.5768C57.8406 14.7956 57.5184 15.1117 57.2753 15.525C57.0443 15.9384 56.9288 16.4307 56.9288 17.0021C56.9288 17.5613 57.0443 18.0476 57.2753 18.4609C57.5184 18.8743 57.8406 19.1964 58.2418 19.4274C58.643 19.6462 59.0806 19.7557 59.5547 19.7557ZM71.8965 21.561L71.8783 16.218C71.8783 15.5493 71.7202 15.057 71.4042 14.7409C71.1002 14.4127 70.6687 14.2485 70.1094 14.2485C69.684 14.2485 69.2828 14.3944 68.9059 14.6862C68.529 14.9658 68.1947 15.3001 67.903 15.6891V13.7197C68.0975 13.4644 68.3345 13.2213 68.6141 12.9903C68.8937 12.7471 69.2098 12.5466 69.5624 12.3885C69.9271 12.2305 70.3161 12.1515 70.7295 12.1515C71.3616 12.1515 71.9269 12.2913 72.4254 12.5709C72.9238 12.8505 73.3189 13.2699 73.6107 13.8291C73.9024 14.3883 74.0483 15.0874 74.0483 15.9262V21.561H71.8965ZM65.7512 21.561V12.3703H67.903V21.561H65.7512ZM79.3147 21.8345C78.5732 21.8345 77.8863 21.6461 77.2541 21.2692C76.622 20.8923 76.1114 20.3453 75.7223 19.628C75.3455 18.9107 75.157 18.0476 75.157 17.0386C75.157 16.0174 75.3455 15.1421 75.7223 14.4127C76.1114 13.6832 76.6341 13.124 77.2906 12.735C77.9471 12.346 78.6765 12.1515 79.4788 12.1515C79.9773 12.1515 80.4818 12.273 80.9924 12.5162C81.5151 12.7471 81.9528 13.0572 82.3054 13.4462V8.43141H84.4571V21.561H82.3054V20.011C82.0257 20.5094 81.6246 20.941 81.1018 21.3057C80.5912 21.6582 79.9955 21.8345 79.3147 21.8345ZM79.8253 19.6827C80.263 19.6827 80.6702 19.5672 81.0471 19.3362C81.424 19.1053 81.7279 18.7831 81.9589 18.3698C82.1899 17.9443 82.3054 17.4458 82.3054 16.8744L82.2871 15.4703C81.9589 15.0934 81.5942 14.8017 81.193 14.595C80.804 14.3762 80.3724 14.2668 79.8983 14.2668C79.3877 14.2668 78.9439 14.4005 78.5671 14.668C78.1902 14.9233 77.8984 15.2636 77.6918 15.6891C77.4973 16.1025 77.4 16.5523 77.4 17.0386C77.4 17.5248 77.4973 17.9686 77.6918 18.3698C77.8984 18.7709 78.1841 19.0931 78.5488 19.3362C78.9135 19.5672 79.339 19.6827 79.8253 19.6827ZM88.21 10.6561C87.7967 10.6561 87.438 10.5103 87.1341 10.2185C86.8423 9.91457 86.6965 9.56201 86.6965 9.16083C86.6965 8.74749 86.8423 8.39494 87.1341 8.10317C87.438 7.8114 87.7967 7.66552 88.21 7.66552C88.4896 7.66552 88.7449 7.73238 88.9759 7.86611C89.2069 7.99984 89.3892 8.18219 89.523 8.41318C89.6688 8.64416 89.7418 8.89338 89.7418 9.16083C89.7418 9.41613 89.6688 9.66535 89.523 9.90849C89.3892 10.1395 89.2069 10.3218 88.9759 10.4556C88.7449 10.5893 88.4896 10.6561 88.21 10.6561ZM87.3712 21.561V12.3703H89.523V21.561H87.3712ZM85.8941 14.2303V12.3703H89.523V14.2303H85.8941ZM95.0264 21.8345C94.2849 21.8345 93.598 21.6461 92.9658 21.2692C92.3337 20.8923 91.8231 20.3453 91.434 19.628C91.0572 18.9107 90.8687 18.0476 90.8687 17.0386C90.8687 16.0174 91.0572 15.1421 91.434 14.4127C91.8231 13.6832 92.3458 13.124 93.0023 12.735C93.6588 12.346 94.3882 12.1515 95.1906 12.1515C95.689 12.1515 96.1935 12.273 96.7041 12.5162C97.2269 12.7471 97.6645 13.0572 98.0171 13.4462V12.3703H100.169V21.561H98.0171V20.011C97.7375 20.5094 97.3363 20.941 96.8135 21.3057C96.3029 21.6582 95.7072 21.8345 95.0264 21.8345ZM95.537 19.6827C95.9747 19.6827 96.3819 19.5672 96.7588 19.3362C97.1357 19.1053 97.4396 18.7831 97.6706 18.3698C97.9016 17.9443 98.0171 17.4458 98.0171 16.8744L97.9988 15.4703C97.6706 15.0934 97.3059 14.7956 96.9047 14.5768C96.5157 14.3579 96.0841 14.2485 95.61 14.2485C95.0994 14.2485 94.6557 14.3823 94.2788 14.6497C93.9019 14.9172 93.6101 15.2636 93.4035 15.6891C93.209 16.1025 93.1117 16.5523 93.1117 17.0386C93.1117 17.5248 93.209 17.9686 93.4035 18.3698C93.6101 18.7709 93.8958 19.0931 94.2605 19.3362C94.6253 19.5672 95.0508 19.6827 95.537 19.6827ZM102.116 21.561V8.43141H104.268V21.561H102.116Z" fill="#2248B9"/>
<path d="M112.069 21.8345C111.182 21.8345 110.349 21.6765 109.571 21.3604C108.793 21.0443 108.106 20.6066 107.51 20.0474C106.915 19.476 106.447 18.8013 106.106 18.0233C105.778 17.2331 105.614 16.376 105.614 15.4521C105.614 14.5281 105.778 13.6772 106.106 12.8991C106.447 12.1089 106.915 11.4342 107.51 10.875C108.106 10.3036 108.793 9.85986 109.571 9.54378C110.349 9.22769 111.182 9.06965 112.069 9.06965C112.86 9.06965 113.534 9.17907 114.093 9.39789C114.653 9.61672 115.139 9.91457 115.552 10.2914V12.6985C115.273 12.4675 114.969 12.2487 114.641 12.042C114.324 11.8354 113.966 11.6652 113.565 11.5314C113.163 11.3856 112.683 11.3126 112.124 11.3126C111.358 11.3126 110.665 11.495 110.045 11.8597C109.425 12.2122 108.933 12.7046 108.568 13.3368C108.203 13.9568 108.021 14.6619 108.021 15.4521C108.021 16.2423 108.203 16.9474 108.568 17.5674C108.933 18.1874 109.425 18.6798 110.045 19.0445C110.665 19.4092 111.358 19.5915 112.124 19.5915C112.61 19.5915 113.012 19.5429 113.328 19.4457C113.656 19.3484 113.917 19.2329 114.112 19.0992C114.318 18.9533 114.483 18.8256 114.604 18.7162L116.683 19.9198C116.355 20.2723 115.96 20.5945 115.498 20.8863C115.036 21.1659 114.513 21.3908 113.929 21.561C113.358 21.7433 112.738 21.8345 112.069 21.8345ZM114.44 21.0139V16.6921H112.27V14.9415H116.683V19.9198L114.44 21.0139ZM118.302 21.561V9.34319H123.317C123.876 9.34319 124.423 9.44652 124.958 9.65319C125.505 9.85986 125.992 10.1577 126.417 10.5467C126.855 10.9358 127.201 11.4099 127.456 11.9691C127.724 12.5283 127.858 13.1605 127.858 13.8656C127.858 14.7409 127.651 15.5068 127.238 16.1633C126.824 16.8197 126.265 17.3303 125.56 17.695C124.867 18.0598 124.113 18.2421 123.299 18.2421C122.642 18.2421 122.059 18.1813 121.548 18.0598C121.05 17.926 120.655 17.7741 120.363 17.6039V15.6344C120.63 15.7682 121.001 15.8958 121.475 16.0174C121.949 16.139 122.442 16.1997 122.952 16.1997C123.73 16.1997 124.338 15.9931 124.776 15.5797C125.226 15.1664 125.451 14.595 125.451 13.8656C125.451 13.3672 125.329 12.9477 125.086 12.6073C124.855 12.2669 124.545 12.0056 124.156 11.8232C123.767 11.6409 123.341 11.5497 122.879 11.5497H120.655V21.561H118.302Z" fill="#5D93FF"/>
<defs>
<linearGradient id="paint0_linear_1_1304" x1="4.5449" y1="1.2725" x2="4.73382" y2="1.7448" gradientUnits="userSpaceOnUse">
<stop stop-color="#5D93FF"/>
<stop offset="1" stop-color="#2D62FF"/>
</linearGradient>
<linearGradient id="paint1_linear_1_1304" x1="10.0235" y1="17.8975" x2="30.1435" y2="11.3798" gradientUnits="userSpaceOnUse">
<stop stop-color="#2D62FF"/>
<stop offset="1" stop-color="#5D93FF"/>
</linearGradient>
</defs>
</svg>
